#!OML:ASF G:\JayActor3\Patient Classification 1\Patient 1\Session 6\male.ASF
:FULLY-SPECIFIED
:DEGREES
1888
root 2.0758 16.4118 -22.5495 179.665 -30.6557 -174.412
lowerback -1.43211 -1.83003 1.09379
upperback 4.80435 -2.72709 1.27158
thorax 5.79108 -1.40376 0.524406
lowerneck -3.82933 -0.495972 1.04939
upperneck 2.72479 -0.878659 3.21443
head 1.50141 -0.383044 0.801838
rclavicle 7.40473e-015 -1.59028e-014
rhumerus -46.6155 -15.8986 -77.9943
rradius 22.8792
rwrist 9.86727
rhand -3.80437 -10.8022
rfingers 7.12502
rthumb 21.9418 -39.5779
lclavicle 7.40473e-015 -1.59028e-014
lhumerus -27.435 12.0331 81.133
lradius 34.8051
lwrist 28.4161
lhand -13.7989 8.96121
lfingers 7.12502
lthumb 12.323 38.5781
rfemur -14.5775 1.27811 25.0681
rtibia 35.4938
rfoot -25.6721 -15.9406
rtoes 2.92332
lfemur -9.36426 5.78582 -11.2156
ltibia 25.6991
lfoot -18.7011 12.2212
ltoes 2.59231
1889
root 2.10487 16.4127 -22.5669 179.68 -30.4722 -174.385
lowerback -1.44965 -1.82556 1.12258
upperback 4.76706 -2.72182 1.30008
thorax 5.76191 -1.40008 0.538355
lowerneck -3.79792 -0.42762 1.12213
upperneck 2.6191 -0.782448 3.11552
head 1.4596 -0.337558 0.760523
rclavicle 4.57205e-015 -3.18055e-015
rhumerus -46.0255 -15.1917 -78.5185
rradius 23.3737
rwrist 9.56714
rhand -4.46633 -10.718
rfingers 7.12502
rthumb 21.3061 -39.5668
lclavicle 4.57205e-015 -3.18055e-015
lhumerus -27.4815 12.1327 81.1385
lradius 34.4385
lwrist 28.2688
lhand -13.7633 8.92814
lfingers 7.12502
lthumb 12.3574 38.5429
rfemur -14.5807 1.18567 25.2075
rtibia 35.4242
rfoot -25.5061 -15.7427
rtoes 2.88057
lfemur -9.27814 5.56176 -11.0721
ltibia 25.6112
lfoot -18.7712 12.5621
ltoes 2.63058
1890
root 2.13414 16.4141 -22.5844 179.7 -30.3028 -174.367
lowerback -1.4713 -1.82201 1.15047
upperback 4.73141 -2.71747 1.32261
thorax 5.73657 -1.39668 0.546365
lowerneck -3.78057 -0.367278 1.18715
upperneck 2.53197 -0.698245 3.02964
head 1.42673 -0.297562 0.724405
rclavicle 8.89561e-015 -1.11319e-014
rhumerus -45.4319 -14.4738 -79.0412
rradius 23.9171
rwrist 9.1617
rhand -5.23249 -10.6646
rfingers 7.12502
rthumb 20.57 -39.5948
lclavicle 8.89561e-015 -1.11319e-014
lhumerus -27.5255 12.2322 81.1348
lradius 34.0629
lwrist 28.112
lhand -13.7195 8.89618
lfingers 7.12502
lthumb 12.3995 38.5084
rfemur -14.5819 1.05833 25.3349
rtibia 35.3504
rfoot -25.3323 -15.5222
rtoes 2.84773
lfemur -9.19649 5.3231 -10.9379
ltibia 25.5215
lfoot -18.8307 12.9143
ltoes 2.59847
1891
root 2.16332 16.4157 -22.6021 179.718 -30.146 -174.353
lowerback -1.49844 -1.81938 1.18562
upperback 4.70015 -2.71479 1.34033
thorax 5.71848 -1.39367 0.544963
lowerneck -3.77674 -0.313525 1.24336
upperneck 2.4614 -0.623911 2.95617
head 1.40194 -0.262049 0.693504
rclavicle -1.23246e-014 0
rhumerus -44.8368 -13.7558 -79.5491
rradius 24.497
rwrist 8.72366
rhand -6.08141 -10.6269
rfingers 7.12502
rthumb 19.7541 -39.6431
lclavicle -1.23246e-014 0
lhumerus -27.5645 12.3289 81.1229
lradius 33.6775
lwrist 27.9515
lhand -13.6544 8.90408
lfingers 7.12502
lthumb 12.4623 38.5125
rfemur -14.5741 0.897734 25.4566
rtibia 35.2704
rfoot -25.1575 -15.271
rtoes 2.84227
lfemur -9.11455 5.06928 -10.8063
ltibia 25.4357
lfoot -18.9023 13.2568
ltoes 2.6274
1892
root 2.19254 16.4175 -22.6202 179.741 -30.0029 -174.355
lowerback -1.52506 -1.81978 1.20986
upperback 4.66798 -2.71513 1.35232
thorax 5.69931 -1.39242 0.543544
lowerneck -3.78046 -0.263366 1.29147
upperneck 2.40624 -0.555195 2.8936
head 1.38369 -0.228981 0.667315
rclavicle -3.29983e-014 -7.95139e-016
rhumerus -44.2467 -13.002 -80.0665
rradius 25.1211
rwrist 8.20155
rhand -7.06122 -10.6342
rfingers 7.12502
rthumb 18.8119 -39.7446
lclavicle -3.29983e-014 -7.95139e-016
lhumerus -27.6112 12.4367 81.099
lradius 33.2924
lwrist 27.7866
lhand -13.591 8.91671
lfingers 7.12502
lthumb 12.5235 38.5214
rfemur -14.5594 0.708969 25.5604
rtibia 35.1859
rfoot -24.9888 -14.9907
rtoes 2.88
lfemur -9.03584 4.80823 -10.6908
ltibia 25.3559
lfoot -18.9812 13.5869
ltoes 2.69592
